<?xml version="1.0" encoding="UTF-8"?><svg id="Layer_2" xmlns="http://www.w3.org/2000/svg" viewBox="0 0 300 282.76"><defs><style>.cls-1{fill:#00b398;}.cls-2{fill:#6860ec;}.cls-3{fill:#ffc72c;}.cls-4{fill:#ef4a81;}.cls-5{fill:#1b365d;}</style></defs><g id="Layout"><g><g><path class="cls-5" d="M10.82,197.96v2.16H6.61v23.27h4.21v2.16H0v-2.16H4.21v-23.27H0v-2.16H10.82Z"/><path class="cls-5" d="M19.78,205.93v3.53c1.18-2.47,3.83-4.06,7.02-4.06,4.44,0,7.56,3.15,7.56,7.9v12.26h-2.32v-11.54c0-3.95-2.2-6.45-5.81-6.45s-6.19,2.62-6.19,6.34v11.66h-2.32v-19.63h2.05Z"/><path class="cls-5" d="M54.06,210.07c-1.37-1.71-3.3-2.66-5.62-2.66-2.01,0-4.75,.76-4.75,3.19,0,2.66,3,3.11,6.07,4.02,3,.91,6.07,2.01,6.07,5.69,0,4.14-3.91,5.81-7.52,5.81-3.04,0-6.15-1.18-7.86-2.85l1.4-2.05c1.63,1.67,4.1,2.77,6.53,2.77,2.24,0,5.05-.91,5.05-3.49,0-2.73-3-3.42-6.04-4.33-3.04-.8-6.04-1.94-6.04-5.39,0-3.76,3.46-5.43,6.99-5.43,2.89,0,5.62,1.14,6.95,2.92l-1.25,1.78Z"/><path class="cls-5" d="M65.07,200.58v5.39h6.45v2.01h-6.45v10.93c0,3.23,1.29,4.82,3.83,4.82,1.06,0,2.05-.3,3-.76l-.46,2.24c-1.03,.42-2.05,.65-3.15,.65-3.8,0-5.54-2.35-5.54-7.63v-10.25h-3.49v-2.01h3.72v-4.21l2.09-1.18Z"/><path class="cls-5" d="M78.1,197.47c1.21,0,2.09,.76,2.09,1.94,0,1.1-.84,1.94-2.09,1.94s-2.05-.84-2.05-1.94c0-1.18,.87-1.94,2.05-1.94Zm1.18,8.47v19.63h-2.32v-19.63h2.32Z"/><path class="cls-5" d="M89.9,200.58v5.39h6.45v2.01h-6.45v10.93c0,3.23,1.29,4.82,3.83,4.82,1.06,0,2.05-.3,3-.76l-.46,2.24c-1.03,.42-2.05,.65-3.15,.65-3.8,0-5.54-2.35-5.54-7.63v-10.25h-3.49v-2.01h3.72v-4.21l2.09-1.18Z"/><path class="cls-5" d="M103.8,205.93v11.58c0,3.95,2.09,6.3,5.47,6.3,3.76,0,6.15-2.89,6.15-6.64v-11.24h2.32v19.63h-2.05v-3.61c-1.03,2.24-3.49,4.02-6.83,4.02-4.4,0-7.37-3.23-7.37-7.97v-12.07h2.32Z"/><path class="cls-5" d="M128.36,200.58v5.39h6.45v2.01h-6.45v10.93c0,3.23,1.29,4.82,3.83,4.82,1.06,0,2.05-.3,3-.76l-.46,2.24c-1.03,.42-2.05,.65-3.15,.65-3.8,0-5.54-2.35-5.54-7.63v-10.25h-3.49v-2.01h3.72v-4.21l2.09-1.18Z"/><path class="cls-5" d="M158.7,215.77c0,5.88-4.4,10.37-10.18,10.37s-10.14-4.56-10.14-10.37,4.44-10.4,10.14-10.4,10.18,4.52,10.18,10.4Zm-17.84,0c0,4.63,3.3,8.16,7.67,8.16s7.71-3.57,7.71-8.16-3.34-8.16-7.71-8.16-7.67,3.49-7.67,8.16Z"/><path class="cls-5" d="M185.08,197.47v20.16c0,5.35-2.81,8.31-7.71,8.31-1.4,0-3.46-.23-4.48-.65l-.65-4.52c.87,.3,2.16,.49,3.08,.49,3.08,0,4.59-1.52,4.59-4.59v-14.47h-6.38v-4.75h11.54Z"/><path class="cls-5" d="M210.4,205.55v13.52c0,1.78,.61,2.66,2.28,2.66l-.95,3.83c-.65,.23-1.29,.34-1.9,.34-2.13,0-3.64-1.29-3.95-3.27-1.1,1.97-3.57,3.3-6.34,3.3-5.35,0-9.3-4.4-9.3-10.4s4.06-10.4,9.34-10.4c2.81,0,4.9,1.1,6.23,3.3v-2.89h4.59Zm-15.11,9.87c0,3.49,2.13,5.92,5.16,5.92s5.2-2.35,5.2-5.81-2.13-5.88-5.2-5.88-5.16,2.32-5.16,5.77Z"/><path class="cls-5" d="M222.06,205.55v3c1.33-2.24,3.8-3.49,6.68-3.49,4.4,0,7.33,3.15,7.33,7.82v12.68h-5.01v-11.12c0-3.08-1.56-4.78-4.02-4.78-2.73,0-4.56,2.09-4.56,5.31v10.59h-5.01v-20.01h4.59Z"/><path class="cls-5" d="M246.17,217.4c.19,2.7,2.81,4.75,5.85,4.75,2.13,0,4.14-.76,5.47-2.09l2.58,3.57c-2.16,1.67-5.24,2.66-8.31,2.66-6.11,0-10.71-4.52-10.71-10.63s4.33-10.59,10.55-10.59c5.47,0,9.19,3.64,9.19,9.04,0,1.1-.15,2.2-.46,3.3h-14.16Zm9.72-3.3c.04-.27,.04-.42,.04-.68,0-2.39-1.86-4.14-4.44-4.14-2.89,0-5.13,1.97-5.32,4.82h9.72Z"/><path class="cls-5" d="M270.92,197.01v21c0,2.58,.87,3.61,3.04,3.61,.42,0,.84-.04,1.25-.11l-1.03,4.1c-.87,.27-1.67,.3-2.54,.3-3.49,0-5.73-2.39-5.73-6.23v-22.67h5.01Z"/><path class="cls-5" d="M297.72,205.55v13.52c0,1.78,.61,2.66,2.28,2.66l-.95,3.83c-.65,.23-1.29,.34-1.9,.34-2.13,0-3.64-1.29-3.95-3.27-1.1,1.97-3.57,3.3-6.34,3.3-5.35,0-9.3-4.4-9.3-10.4s4.06-10.4,9.34-10.4c2.81,0,4.9,1.1,6.23,3.3v-2.89h4.59Zm-15.11,9.87c0,3.49,2.13,5.92,5.16,5.92s5.2-2.35,5.2-5.81-2.13-5.88-5.2-5.88-5.16,2.32-5.16,5.77Z"/><path class="cls-5" d="M23.27,254.21v3.8c1.33-2.7,4.18-4.33,7.48-4.33,5.09,0,8.88,4.44,8.88,10.4s-3.87,10.36-8.92,10.36c-3.19,0-5.43-1.14-7.21-3.57v11.88h-2.32v-28.55h2.09Zm0,9.87c0,4.71,2.89,8.12,6.95,8.12s6.99-3.42,6.99-8.12-2.96-8.2-6.99-8.2-6.95,3.46-6.95,8.2Z"/><path class="cls-5" d="M46.39,256.22c2.09-1.71,4.59-2.54,7.56-2.54,4.59,0,7.4,2.77,7.4,7.37v7.14c0,3,.61,3.87,2.58,3.87l-.49,1.75c-.3,.15-.72,.19-1.18,.19-1.63,0-2.89-1.59-3-3.72-1.1,2.43-4.21,4.02-7.4,4.02-4.14,0-7.02-2.35-7.02-5.73,0-3.64,3.15-5.81,8.58-5.81h5.62v-.95c0-3.8-2.05-6.07-5.58-6.07-1.97,0-4.33,.91-5.85,2.39l-1.22-1.9Zm7.59,8.28c-4.25,0-6.72,1.52-6.72,4.1,0,2.24,2.05,3.72,5.09,3.72,3.76,0,6.68-2.66,6.68-6.11v-1.71h-5.05Z"/><path class="cls-5" d="M71.72,254.21v3.76c.57-2.58,2.51-4.29,4.94-4.29,1.22,0,2.32,.42,3.27,1.25l-1.06,2.24c-.8-.68-1.71-1.03-2.66-1.03-2.7,0-4.21,2.66-4.21,7.25v10.44h-2.32v-19.63h2.05Z"/><path class="cls-5" d="M84.63,256.22c2.09-1.71,4.59-2.54,7.56-2.54,4.59,0,7.4,2.77,7.4,7.37v7.14c0,3,.61,3.87,2.58,3.87l-.49,1.75c-.3,.15-.72,.19-1.18,.19-1.63,0-2.89-1.59-3-3.72-1.1,2.43-4.21,4.02-7.4,4.02-4.14,0-7.02-2.35-7.02-5.73,0-3.64,3.15-5.81,8.58-5.81h5.62v-.95c0-3.8-2.05-6.07-5.58-6.07-1.97,0-4.33,.91-5.85,2.39l-1.22-1.9Zm7.59,8.28c-4.25,0-6.72,1.52-6.72,4.1,0,2.24,2.05,3.72,5.09,3.72,3.76,0,6.68-2.66,6.68-6.11v-1.71h-5.05Z"/><path class="cls-5" d="M135.16,264.04c0,5.88-4.4,10.37-10.18,10.37s-10.14-4.56-10.14-10.37,4.44-10.4,10.14-10.4,10.18,4.52,10.18,10.4Zm-17.84,0c0,4.63,3.3,8.16,7.67,8.16s7.71-3.57,7.71-8.16-3.34-8.16-7.71-8.16-7.67,3.49-7.67,8.16Z"/><path class="cls-5" d="M155.81,245.74l8.09,13.14,8.01-13.14h5.92v28.1h-5.16v-20.58l-8.12,13.48h-1.56l-8.16-13.48v20.58h-5.05v-28.1h6.04Z"/><path class="cls-5" d="M189.48,253.83v11.31c0,3,1.33,4.63,3.64,4.63,2.85,0,4.52-2.35,4.52-5.35v-10.59h5.01v20.01h-4.48v-3c-1.22,1.97-3.46,3.53-6.49,3.53-4.37,0-7.21-3.27-7.21-8.13v-12.42h5.01Z"/><path class="cls-5" d="M213.78,253.83v3c1.33-2.24,3.8-3.49,6.68-3.49,4.4,0,7.33,3.15,7.33,7.82v12.68h-5.01v-11.12c0-3.08-1.56-4.78-4.02-4.78-2.73,0-4.56,2.09-4.56,5.31v10.59h-5.01v-20.01h4.59Z"/><path class="cls-5" d="M253.04,245.29v28.55h-4.63v-2.81c-1.4,2.28-3.76,3.53-6.61,3.53-4.97,0-9-4.75-9-10.55s4.14-10.67,9.3-10.67c2.73,0,4.9,1.1,6.23,3.23v-11.28h4.71Zm-15.19,18.72c0,3.46,2.16,5.92,5.2,5.92s5.24-2.47,5.24-5.92-2.16-5.92-5.24-5.92-5.2,2.43-5.2,5.92Z"/><path class="cls-5" d="M279.54,263.85c0,6.11-4.59,10.63-10.63,10.63s-10.63-4.59-10.63-10.63,4.52-10.67,10.63-10.67,10.63,4.59,10.63,10.67Zm-16.17,0c0,3.34,2.35,5.85,5.54,5.85s5.58-2.51,5.58-5.85-2.35-5.85-5.58-5.85-5.54,2.47-5.54,5.85Z"/></g><path class="cls-2" d="M75.13,164.06l-7.16-7.16c9.94-9.94,23.15-15.41,37.21-15.41h93.34v10.13H105.18c-11.35,0-22.02,4.42-30.05,12.45Z"/><path class="cls-4" d="M90.55,130.55h-10.13V37.21c0-11.35-4.42-22.02-12.45-30.04l7.16-7.16c9.94,9.94,15.41,23.15,15.41,37.21v93.34Z"/><path class="cls-3" d="M194.82,22.58H101.48V12.45h93.34c11.35,0,22.02-4.42,30.04-12.45l7.16,7.16c-9.94,9.94-23.15,15.41-37.21,15.41Z"/><path class="cls-1" d="M224.87,164.06c-9.94-9.94-15.41-23.15-15.41-37.21V33.51h10.13V126.85c0,11.35,4.42,22.02,12.45,30.04l-7.16,7.16Z"/></g></g></svg>